<svg width="25" height="24" viewBox="0 0 25 24" fill="none" xmlns="http://www.w3.org/2000/svg">
<g clip-path="url(#clip0_346_2021)">
<path d="M9.26343 22C9.81571 22 10.2634 21.5523 10.2634 21C10.2634 20.4477 9.81571 20 9.26343 20C8.71114 20 8.26343 20.4477 8.26343 21C8.26343 21.5523 8.71114 22 9.26343 22Z" stroke="#5D6066" stroke-width="2" stroke-linecap="round" stroke-linejoin="round"/>
<path d="M20.2634 22C20.8157 22 21.2634 21.5523 21.2634 21C21.2634 20.4477 20.8157 20 20.2634 20C19.7111 20 19.2634 20.4477 19.2634 21C19.2634 21.5523 19.7111 22 20.2634 22Z" stroke="#5D6066" stroke-width="2" stroke-linecap="round" stroke-linejoin="round"/>
<path d="M1.26343 1H5.26343L7.94343 14.39C8.03487 14.8504 8.28534 15.264 8.65097 15.5583C9.01661 15.8526 9.47413 16.009 9.94343 16H19.6634C20.1327 16.009 20.5902 15.8526 20.9559 15.5583C21.3215 15.264 21.572 14.8504 21.6634 14.39L23.2634 6H6.26343" stroke="#5D6066" stroke-width="2" stroke-linecap="round" stroke-linejoin="round"/>
</g>
<defs>
<clipPath id="clip0_346_2021">
<rect width="24" height="24" fill="white" transform="translate(0.263428)"/>
</clipPath>
</defs>
</svg>
