<svg width="25" height="24" viewBox="0 0 25 24" fill="none" xmlns="http://www.w3.org/2000/svg">
<path d="M3.26343 19H2.26343H3.26343ZM5.26343 3V2V3ZM20.2634 19C20.2634 19.2652 20.1581 19.5196 19.9705 19.7071L21.3847 21.1213C21.9474 20.5587 22.2634 19.7957 22.2634 19H20.2634ZM19.9705 19.7071C19.783 19.8946 19.5286 20 19.2634 20V22C20.0591 22 20.8221 21.6839 21.3847 21.1213L19.9705 19.7071ZM19.2634 20H5.26343V22H19.2634V20ZM5.26343 20C4.99821 20 4.74386 19.8946 4.55632 19.7071L3.14211 21.1213C3.70472 21.6839 4.46778 22 5.26343 22V20ZM4.55632 19.7071C4.36878 19.5196 4.26343 19.2652 4.26343 19H2.26343C2.26343 19.7957 2.5795 20.5587 3.14211 21.1213L4.55632 19.7071ZM4.26343 19V5H2.26343V19H4.26343ZM4.26343 5C4.26343 4.73478 4.36878 4.48043 4.55632 4.29289L3.14211 2.87868C2.5795 3.44129 2.26343 4.20435 2.26343 5H4.26343ZM4.55632 4.29289C4.74386 4.10536 4.99821 4 5.26343 4V2C4.46778 2 3.70472 2.31607 3.14211 2.87868L4.55632 4.29289ZM5.26343 4H19.2634V2H5.26343V4ZM22.2634 5C22.2634 4.20435 21.9474 3.44129 21.3847 2.87868L19.9705 4.29289C20.1581 4.48043 20.2634 4.73478 20.2634 5H22.2634ZM21.3847 2.87868C20.8221 2.31607 20.0591 2 19.2634 2V4C19.5286 4 19.783 4.10536 19.9705 4.29289L21.3847 2.87868ZM20.2634 5V19H22.2634V5H20.2634Z" fill="#454950"/>
</svg>
