<svg width="21" height="20" viewBox="0 0 21 20" fill="none" xmlns="http://www.w3.org/2000/svg">
<path d="M17.7634 8.33325C17.7634 14.1666 10.2634 19.1666 10.2634 19.1666C10.2634 19.1666 2.76343 14.1666 2.76343 8.33325C2.76343 6.34413 3.5536 4.43647 4.96013 3.02995C6.36665 1.62343 8.2743 0.833252 10.2634 0.833252C12.2526 0.833252 14.1602 1.62343 15.5667 3.02995C16.9733 4.43647 17.7634 6.34413 17.7634 8.33325Z" stroke="#5D6066" stroke-width="1.5" stroke-linecap="round" stroke-linejoin="round"/>
<path d="M10.2634 10.8333C11.6441 10.8333 12.7634 9.71396 12.7634 8.33325C12.7634 6.95254 11.6441 5.83325 10.2634 5.83325C8.88272 5.83325 7.76343 6.95254 7.76343 8.33325C7.76343 9.71396 8.88272 10.8333 10.2634 10.8333Z" stroke="#5D6066" stroke-width="1.5" stroke-linecap="round" stroke-linejoin="round"/>
</svg>
