<svg width="25" height="24" viewBox="0 0 25 24" fill="none" xmlns="http://www.w3.org/2000/svg">
<path d="M21.2634 10C21.2634 17 12.2634 23 12.2634 23C12.2634 23 3.26343 17 3.26343 10C3.26343 7.61305 4.21164 5.32387 5.89947 3.63604C7.58729 1.94821 9.87648 1 12.2634 1C14.6504 1 16.9396 1.94821 18.6274 3.63604C20.3152 5.32387 21.2634 7.61305 21.2634 10Z" stroke="#5D6066" stroke-width="2" stroke-linecap="round" stroke-linejoin="round"/>
<path d="M12.2634 13C13.9203 13 15.2634 11.6569 15.2634 10C15.2634 8.34315 13.9203 7 12.2634 7C10.6066 7 9.26343 8.34315 9.26343 10C9.26343 11.6569 10.6066 13 12.2634 13Z" stroke="#5D6066" stroke-width="2" stroke-linecap="round" stroke-linejoin="round"/>
</svg>
