<svg width="25" height="24" viewBox="0 0 25 24" fill="none" xmlns="http://www.w3.org/2000/svg">
<path d="M21.2635 15.9999V7.9999C21.2631 7.64918 21.1705 7.30471 20.995 7.00106C20.8195 6.69742 20.5672 6.44526 20.2635 6.2699L13.2635 2.2699C12.9594 2.09437 12.6145 2.00195 12.2635 2.00195C11.9124 2.00195 11.5675 2.09437 11.2635 2.2699L4.26346 6.2699C3.95972 6.44526 3.70744 6.69742 3.53192 7.00106C3.3564 7.30471 3.26382 7.64918 3.26346 7.9999V15.9999C3.26382 16.3506 3.3564 16.6951 3.53192 16.9987C3.70744 17.3024 3.95972 17.5545 4.26346 17.7299L11.2635 21.7299C11.5675 21.9054 11.8589 21.9999 12.2635 21.9999C12.668 21.9999 12.9594 21.9054 13.2635 21.7299L20.2635 17.7299C20.5672 17.5545 20.8195 17.3024 20.995 16.9987C21.1705 16.6951 21.2631 16.3506 21.2635 15.9999Z" stroke="#5D6066" stroke-width="2" stroke-miterlimit="16" stroke-linecap="round"/>
<path d="M3.53345 6.95996L12.2634 12.01L20.9934 6.95996" stroke="#5D6066" stroke-width="2" stroke-linecap="round" stroke-linejoin="round"/>
</svg>
